Coordinates
version=1
nRows=12
nColumns=33
inDegrees=yes

Units are S.I. units (second, meters, Newtons, ...)
Angles are in degrees.

endheader
time	ground_thorax_rot_x	ground_thorax_rot_y	ground_thorax_rot_z	ground_thorax_tx	ground_thorax_ty	ground_thorax_tz	clav_prot_r	clav_elev_r	scapula_abduction_r	scapula_elevation_r	scapula_upward_rot_r	scapula_winging_r	shoulder_elv_r	plane_of_elev_r	axial_rot_r	elbow_flexion_r	pro_sup_r	wrist_flex_r	wrist_dev_r	clav_prot_l	clav_elev_l	scapula_abduction_l	scapula_elevation_l	scapula_upward_rot_l	scapula_winging_l	shoulder_elv_l	plane_of_elev_l	axial_rot_l	elbow_flexion_l	pro_sup_l	wrist_flex_l	wrist_dev_l	
1.7900	3.370327	-4.994788	12.327273	-0.115716	1.043006	0.009819	9.297263	0.740764	27.906954	-1.246615	20.872714	-12.027204	55.388179	32.010555	-24.942976	97.399541	50.901807	9.472616	-3.456799	9.392581	-4.522662	-17.378286	-0.914179	-0.261506	5.040114	61.931540	48.573013	15.625651	95.120818	29.304606	-12.346660	-15.787025	
1.8000	3.389843	-4.947496	12.374956	-0.115901	1.043037	0.009873	9.356721	0.701020	27.984212	-1.266460	20.828863	-12.046788	55.358343	31.775909	-24.984844	98.665373	50.989907	9.653081	-3.835369	9.407448	-4.514297	-17.413585	-0.912548	-0.240509	5.058476	62.252396	48.581413	15.747818	95.980656	29.506787	-12.399240	-15.902236	
1.8100	3.412454	-4.900330	12.421945	-0.116101	1.043054	0.009926	9.425165	0.651597	28.065707	-1.289020	20.767836	-12.065235	55.316370	31.526123	-24.995915	99.941089	51.071516	9.823549	-4.227843	9.431406	-4.509866	-17.456992	-0.914574	-0.236572	5.077758	62.561984	48.584636	15.865904	96.820097	29.709384	-12.445672	-15.986459	
1.8200	3.437562	-4.855182	12.473694	-0.116323	1.043062	0.009979	9.504441	0.580986	28.160296	-1.325763	20.695575	-12.082948	55.256329	31.249420	-24.960577	101.224285	51.138974	9.969731	-4.648038	9.467957	-4.507777	-17.512194	-0.923603	-0.254393	5.099647	62.862603	48.575723	15.977738	97.650633	29.912936	-12.482370	-16.006206	
1.8300	3.465822	-4.808790	12.528289	-0.116555	1.043060	0.010033	9.591211	0.491615	28.259859	-1.373863	20.609421	-12.097160	55.184662	30.948488	-24.882767	102.517837	51.189341	10.095333	-5.084083	9.514387	-4.511730	-17.574662	-0.936528	-0.294363	5.121202	63.148992	48.560769	16.077765	98.468779	30.112006	-12.509158	-15.974267	
1.8400	3.492522	-4.756553	12.588137	-0.116793	1.043056	0.010082	9.684984	0.382902	28.358557	-1.431570	20.502144	-12.105419	55.100602	30.620739	-24.767792	103.829115	51.217890	10.200495	-5.527620	9.569659	-4.527194	-17.640954	-0.950489	-0.361123	5.139225	63.420292	48.542594	16.151822	99.271029	30.302903	-12.522592	-15.900854	
1.8500	3.522824	-4.695245	12.645220	-0.117016	1.043047	0.010128	9.777623	0.263807	28.434432	-1.488406	20.364318	-12.101319	55.020472	30.289342	-24.629123	105.155362	51.224192	10.301281	-5.945431	9.624218	-4.557056	-17.697633	-0.960425	-0.448613	5.147656	63.662537	48.534449	16.195298	100.048206	30.470544	-12.526918	-15.832138	
1.8600	3.551654	-4.624819	12.703453	-0.117225	1.043041	0.010169	9.870268	0.128196	28.485542	-1.547302	20.189247	-12.082534	54.942384	29.953041	-24.469354	106.496028	51.205243	10.396750	-6.335540	9.677444	-4.602793	-17.742303	-0.966436	-0.560088	5.145080	63.876035	48.534188	16.195730	100.801713	30.611025	-12.518043	-15.770677	
1.8700	3.589457	-4.550573	12.749850	-0.117383	1.043035	0.010218	9.944709	-0.028738	28.474957	-1.609676	19.969096	-12.032824	54.887791	29.658913	-24.290632	107.827394	51.143849	10.496277	-6.654389	9.708921	-4.661382	-17.747626	-0.963783	-0.677559	5.122139	64.031414	48.552079	16.145200	101.532781	30.684796	-12.504705	-15.748346	
1.8800	3.629744	-4.472403	12.789172	-0.117504	1.043032	0.010269	10.008520	-0.209538	28.416780	-1.677777	19.704507	-11.956885	54.853094	29.389798	-24.098713	109.149780	51.053178	10.607853	-6.923173	9.725346	-4.733059	-17.723415	-0.953980	-0.805197	5.082644	64.138297	48.583752	16.044254	102.241151	30.706076	-12.481394	-15.756190	
1.8900	3.672898	-4.391663	12.823848	-0.117601	1.043030	0.010320	10.066759	-0.420275	28.322836	-1.757511	19.398487	-11.857336	54.844176	29.134372	-23.893931	110.453173	50.950820	10.750187	-7.161373	9.731166	-4.816744	-17.676848	-0.938451	-0.944165	5.029800	64.197860	48.627774	15.901344	102.927697	30.684895	-12.442434	-15.786580	
1.9000	3.711413	-4.306845	12.862246	-0.117706	1.043028	0.010362	10.137991	-0.659086	28.237587	-1.852658	19.067917	-11.752113	54.847131	28.843381	-23.679490	111.743978	50.867923	10.932498	-7.426908	9.745963	-4.909035	-17.636605	-0.924729	-1.105497	4.975766	64.243388	48.669212	15.733735	103.600099	30.666746	-12.376443	-15.806072	
